<svg version="1" xmlns="http://www.w3.org/2000/svg" width="268" height="268" viewBox="0 0 201.000000 201.000000"><path d="M12.5 5.7C8.1 8 6 10 2.8 14.9 0 19.3 0 19.6 0 34.2V49h19V28h47.6l39.2 22.6L145 73.2v52.7l-9.4 5.6c-5.2 3-9.7 5.5-10 5.5-.4 0-4.3-2.1-8.7-4.6-9.1-5.3-9.5-4.1 3.8-11.8l8.3-4.8v-15.7c0-13.8-.2-16-1.7-17.3-1.5-1.3-58.7-34.4-65-37.7-1.2-.6-7.3-1.1-14.2-1.1H36v111h25.5l6.5-3.9 6.5-3.9 4 2.3c2.2 1.3 6 3.5 8.4 4.8l4.4 2.5-3.9 2.4c-2.2 1.3-8 4.8-13 7.6l-9.1 5.2H19.1l-.3-10.8-.3-10.7-9.2-.3-9.3-.3v14.6c0 16.5.9 19.6 7.6 25.5 7.2 6.3 2.6 6 92.6 6 92.9 0 86.5.5 94.1-8 6-6.6 6.7-9.2 6.7-24.5v-13.6l-9.7.3-9.8.3-.3 10.7-.3 10.8h-46.4L95 149.1l-39.5-22.8-.3-26.6-.2-26.5 9.7-5.5 9.8-5.6 6.5 3.6c11.4 6.3 11.2 5.5 2.3 10.6C69.8 84.1 71 81.7 71 99.9v15.9l33.9 19.6 34 19.6H164V44H139.7l-7.1 4-7.2 3.9-7.9-4.5c-4.4-2.5-8.1-4.7-8.3-4.9-.2-.1 5.2-3.5 12-7.4l12.3-7.1H181v21h20V35.7c0-10.6-.4-14-1.9-17.2-2.5-5.6-6.7-10.2-11.2-12.5-3.7-1.9-6.4-2-88.1-2-75 .1-84.6.3-87.3 1.7zm96.8 78.8l8.7 5V109.8l-9 5.2-9 5.1-9-5.2-9-5.1V89.5l8.8-5.1c4.8-2.9 9-5.1 9.3-5 .3 0 4.5 2.3 9.2 5.1z"/><path d="M0 78.5V91h19V66H0v12.5zM181 78.5V91h20V66h-20v12.5zM0 121v13h19v-26H0v13zM181 121v13h20v-26h-20v13z"/></svg>